<svg width="16" height="16" viewBox="0 0 16 16" fill="none" xmlns="http://www.w3.org/2000/svg">
<path d="M15.8516 6.54117H8.16327V9.64075H12.5566C12.3636 10.6376 11.7848 11.4816 10.9165 12.0491C10.1892 12.5293 9.2616 12.8204 8.16327 12.8204C6.04082 12.8204 4.23748 11.4161 3.59184 9.52434C3.42857 9.04412 3.3321 8.5348 3.3321 8.00365C3.3321 7.4725 3.42857 6.96318 3.59184 6.48296C4.23748 4.59119 6.04082 3.18692 8.16327 3.18692C9.36549 3.18692 10.4341 3.59438 11.2876 4.38019L13.6252 2.08824C12.2078 0.793109 10.3673 2.20122e-05 8.16327 2.20122e-05C4.97217 -0.00725401 2.21892 1.78992 0.875696 4.40929C0.319109 5.48615 0 6.70124 0 7.99637C0 9.29151 0.319109 10.5066 0.875696 11.5835C2.21892 14.2028 4.97217 16 8.16327 16C10.3673 16 12.2152 15.287 13.5659 14.0646C15.1095 12.6676 16 10.6157 16 8.17827C16 7.61074 15.9481 7.06504 15.8516 6.54117Z" fill="#18181B"/>
</svg>
