<svg width="14" height="17" viewBox="0 0 14 17" fill="none" xmlns="http://www.w3.org/2000/svg">
<path d="M11.0139 5.70393C11.9657 5.70393 12.7373 4.93391 12.7373 3.98404C12.7373 3.03418 11.9657 2.26416 11.0139 2.26416C10.0621 2.26416 9.29053 3.03418 9.29053 3.98404C9.29053 4.93391 10.0621 5.70393 11.0139 5.70393Z" fill="#1692F1"/>
<path d="M12.4248 11.2968L9.60539 10.2727C9.20335 10.1267 8.87744 10.355 8.87744 10.7828V13.8587C8.87744 14.2864 9.20335 14.7516 9.60539 14.8976L12.4248 15.9217C12.8268 16.0677 13.1527 15.8394 13.1527 15.4117V12.3357C13.1527 11.908 12.8268 11.4429 12.4248 11.2968Z" fill="#1692F1"/>
<path d="M4.39355 0.464401L1.57414 1.48851C1.1721 1.63455 0.846191 2.09968 0.846191 2.52741V15.4255C0.846191 15.8532 1.1721 16.0816 1.57414 15.9356L4.39355 14.9115C4.79558 14.7654 5.12149 14.3003 5.12149 13.8726V0.974466C5.12149 0.546732 4.79558 0.318368 4.39355 0.464401Z" fill="#1692F1"/>
<path fill-rule="evenodd" clip-rule="evenodd" d="M7.00003 10.4744L2.15541 8.7146C1.43234 8.45194 0.846191 7.59358 0.846191 6.79727V2.26416C0.846191 3.06045 1.43234 3.91888 2.15541 4.18152L7.00003 5.94126L11.8446 7.70096C12.5677 7.96363 13.1539 8.82209 13.1539 9.61829V14.1514C13.1539 13.3551 12.5677 12.4966 11.8446 12.2341L7.00003 10.4744Z" fill="#01EAAC"/>
</svg>
