<svg width="74" height="24" viewBox="0 0 74 24" fill="none" xmlns="http://www.w3.org/2000/svg">
<g clip-path="url(#clip0_142_2233)">
<path d="M18.5259 0H6.52588C3.21217 0 0.525879 2.68629 0.525879 6V18C0.525879 21.3137 3.21217 24 6.52588 24H18.5259C21.8396 24 24.5259 21.3137 24.5259 18V6C24.5259 2.68629 21.8396 0 18.5259 0Z" fill="#030119"/>
<path d="M16.4396 9.36599C17.3676 9.36599 18.1198 8.61522 18.1198 7.6891C18.1198 6.76298 17.3676 6.01221 16.4396 6.01221C15.5116 6.01221 14.7593 6.76298 14.7593 7.6891C14.7593 8.61522 15.5116 9.36599 16.4396 9.36599Z" fill="#1692F1"/>
<path d="M17.8146 14.8193L15.0657 13.8208C14.6737 13.6784 14.356 13.9011 14.356 14.3181V17.3171C14.356 17.7342 14.6737 18.1877 15.0657 18.3301L17.8146 19.3286C18.2066 19.471 18.5244 19.2483 18.5244 18.8313V15.8322C18.5244 15.4152 18.2066 14.9617 17.8146 14.8193Z" fill="#1692F1"/>
<path d="M9.98456 4.25784L7.23563 5.25635C6.84364 5.39874 6.52588 5.85224 6.52588 6.26928V18.8449C6.52588 19.262 6.84364 19.4846 7.23563 19.3423L9.98456 18.3437C10.3765 18.2014 10.6943 17.7479 10.6943 17.3308V4.75516C10.6943 4.33812 10.3765 4.11546 9.98456 4.25784Z" fill="#1692F1"/>
<path fill-rule="evenodd" clip-rule="evenodd" d="M12.5259 14.0172L7.80237 12.3014C7.09738 12.0453 6.52588 11.2084 6.52588 10.432V6.01221C6.52588 6.78859 7.09738 7.62556 7.80237 7.88164L12.5259 9.59739L17.2494 11.3131C17.9544 11.5692 18.5259 12.4062 18.5259 13.1825V17.6023C18.5259 16.8259 17.9544 15.9889 17.2494 15.7329L12.5259 14.0172Z" fill="#01EAAC"/>
</g>
<path d="M37.4653 8.07568C38.5786 8.07568 39.4546 8.43603 40.0933 9.15674C40.7378 9.87158 41.0601 10.8501 41.0601 12.0923V17.0933H38.52V12.523C38.52 11.9194 38.3677 11.4478 38.063 11.1079C37.7583 10.7681 37.3423 10.5981 36.8149 10.5981C36.4634 10.5981 36.1294 10.689 35.813 10.8706C35.5024 11.0464 35.2534 11.2837 35.0659 11.5825V17.0933H32.5259V4.48974H35.0659V9.27978C35.3179 8.91064 35.6577 8.61767 36.0854 8.40088C36.5132 8.18408 36.9731 8.07568 37.4653 8.07568ZM43.0376 4.42822C43.3423 4.12353 43.7056 3.97119 44.1274 3.97119C44.5493 3.97119 44.9126 4.12353 45.2173 4.42822C45.522 4.72705 45.6743 5.08447 45.6743 5.50049C45.6743 5.92236 45.522 6.28564 45.2173 6.59033C44.9126 6.89502 44.5493 7.04736 44.1274 7.04736C43.7056 7.04736 43.3423 6.89502 43.0376 6.59033C42.7329 6.28564 42.5806 5.92236 42.5806 5.50049C42.5806 5.08447 42.7329 4.72705 43.0376 4.42822ZM42.8618 8.25146H45.4019V17.0933H42.8618V8.25146ZM53.5581 8.25146H56.0982V17.0933H53.5581V16.0474C53.3413 16.4107 52.9898 16.7066 52.5034 16.9351C52.023 17.1578 51.5044 17.2691 50.9478 17.2691C50.1919 17.2691 49.4976 17.064 48.8648 16.6538C48.2319 16.2437 47.7339 15.6871 47.3706 14.9839C47.0073 14.2749 46.8257 13.5015 46.8257 12.6636C46.8257 11.3862 47.2241 10.3022 48.021 9.41162C48.8237 8.52099 49.7993 8.07568 50.9478 8.07568C51.4985 8.07568 52.0171 8.18994 52.5034 8.41846C52.9898 8.64697 53.3413 8.93994 53.5581 9.29736V8.25146ZM51.5103 14.8609C51.938 14.8609 52.3364 14.7583 52.7056 14.5533C53.0806 14.3482 53.3648 14.0845 53.5581 13.7622V11.6001C53.3648 11.2661 53.0806 10.9937 52.7056 10.7827C52.3364 10.5718 51.938 10.4663 51.5103 10.4663C50.8892 10.4663 50.3677 10.6772 49.9458 11.0991C49.5239 11.5151 49.313 12.0366 49.313 12.6636C49.313 13.2906 49.5239 13.815 49.9458 14.2369C50.3677 14.6529 50.8892 14.8609 51.5103 14.8609ZM62.5405 8.07568C62.9917 8.07568 63.3521 8.12842 63.6216 8.23388L63.4722 10.6157C63.0972 10.481 62.7192 10.4136 62.3384 10.4136C62.022 10.4136 61.6704 10.5366 61.2837 10.7827C60.9028 11.023 60.6128 11.3452 60.4136 11.7495V17.0933H57.8735V8.25146H60.4136V9.29736C60.6187 8.93408 60.9263 8.64111 61.3364 8.41846C61.7524 8.18994 62.1538 8.07568 62.5405 8.07568ZM70.7407 8.25146H73.4741L68.561 20.0288H65.8452L67.48 16.3726L64.0786 8.25146H66.8208L68.7808 13.4195L70.7407 8.25146Z" fill="#18181B"/>
<defs>
<clipPath id="clip0_142_2233">
<rect width="24" height="24" fill="white" transform="translate(0.525879)"/>
</clipPath>
</defs>
</svg>
