<svg width="32" height="32" viewBox="0 0 32 32" fill="none" xmlns="http://www.w3.org/2000/svg">
<path d="M0 8C0 3.58172 3.58172 0 8 0H24C28.4183 0 32 3.58172 32 8V24C32 28.4183 28.4183 32 24 32H8C3.58172 32 0 28.4183 0 24V8Z" fill="#18181B"/>
<path d="M22.6663 16.6667V12.0001C22.6663 11.6465 22.5259 11.3073 22.2758 11.0573C22.0258 10.8072 21.6866 10.6667 21.333 10.6667H10.6663C10.3127 10.6667 9.97358 10.8072 9.72353 11.0573C9.47348 11.3073 9.33301 11.6465 9.33301 12.0001V20.0001C9.33301 20.7334 9.93301 21.3334 10.6663 21.3334H15.9997M22.6663 12.6667L16.6863 16.4667C16.4805 16.5957 16.2426 16.6641 15.9997 16.6641C15.7568 16.6641 15.5188 16.5957 15.313 16.4667L9.33301 12.6667M18.6663 20.6667L19.9997 22.0001L22.6663 19.3334" stroke="#FAFAFA" stroke-width="1.5" stroke-linecap="round" stroke-linejoin="round"/>
</svg>
